<?xml version="1.0" encoding="UTF-8" standalone="no"?>
<!DOCTYPE svg PUBLIC "-//W3C//DTD SVG 1.1//EN" "http://www.w3.org/Graphics/SVG/1.1/DTD/svg11.dtd">
<svg version="1.1" xmlns="http://www.w3.org/2000/svg" xmlns:xlink="http://www.w3.org/1999/xlink" preserveAspectRatio="xMidYMid meet" viewBox="0 0 512 512" width="512" height="512"><defs><path d="M32 32L96 32L96 352L32 352L32 32Z" id="a3XOiL0Ah9"></path><path d="M32 32L224 32L224 96L32 96L32 32Z" id="a4VbzEJ1GN"></path><path d="M32 288L224 288L224 352L32 352L32 288Z" id="aDawrm9xn"></path><path d="M32 416L224 416L224 480L32 480L32 416Z" id="e3aZbVHAlE"></path><path d="M160 288L224 288L224 480L160 480L160 288Z" id="c3uOGNaeFq"></path><path d="M160 32L224 32L224 224L160 224L160 32Z" id="a19OlIXDVs"></path><path d="M160 160L352 160L352 224L160 224L160 160Z" id="b1rWUoFswS"></path><path d="M288 32L352 32L352 224L288 224L288 32Z" id="b1rCAUUi"></path><path d="M288 32L480 32L480 96L288 96L288 32Z" id="fmO8JucG"></path><path d="M416 32L480 32L480 352L416 352L416 32Z" id="d2eB2pPl2E"></path><path d="M288 288L480 288L480 352L288 352L288 288Z" id="a1NZkkGT0"></path><path d="M288 288L352 288L352 480L288 480L288 288Z" id="cF1PCo7FR"></path><path d="M288 416L480 416L480 480L288 480L288 416Z" id="d10UujUD0A"></path></defs><g><g><g><use xlink:href="#a3XOiL0Ah9" opacity="1" fill="#000000" fill-opacity="1"></use></g><g><use xlink:href="#a4VbzEJ1GN" opacity="1" fill="#000000" fill-opacity="1"></use></g><g><use xlink:href="#aDawrm9xn" opacity="1" fill="#000000" fill-opacity="1"></use></g><g><use xlink:href="#e3aZbVHAlE" opacity="1" fill="#000000" fill-opacity="1"></use></g><g><use xlink:href="#c3uOGNaeFq" opacity="1" fill="#000000" fill-opacity="1"></use></g><g><use xlink:href="#a19OlIXDVs" opacity="1" fill="#000000" fill-opacity="1"></use></g><g><use xlink:href="#b1rWUoFswS" opacity="1" fill="#000000" fill-opacity="1"></use></g><g><use xlink:href="#b1rCAUUi" opacity="1" fill="#000000" fill-opacity="1"></use></g><g><use xlink:href="#fmO8JucG" opacity="1" fill="#000000" fill-opacity="1"></use></g><g><use xlink:href="#d2eB2pPl2E" opacity="1" fill="#000000" fill-opacity="1"></use></g><g><use xlink:href="#a1NZkkGT0" opacity="1" fill="#000000" fill-opacity="1"></use></g><g><use xlink:href="#cF1PCo7FR" opacity="1" fill="#000000" fill-opacity="1"></use></g><g><use xlink:href="#d10UujUD0A" opacity="1" fill="#000000" fill-opacity="1"></use></g></g></g></svg>